HIERARCHY
ROOT joint_Root
{
	OFFSET 0.0 0.0 0.0
	CHANNELS 6 Xposition Yposition Zposition Zrotation Xrotation Yrotation 
	JOINT Hips
	{
		OFFSET -17.1583 93.1646 452.98
		CHANNELS 6 Xposition Yposition Zposition Zrotation Xrotation Yrotation 
		JOINT Spine
		{
			OFFSET 15.7357 0.0 0.0
			CHANNELS 6 Xposition Yposition Zposition Zrotation Xrotation Yrotation 
			JOINT Chest
			{
				OFFSET 8.98455 -0.406207 0.0
				CHANNELS 6 Xposition Yposition Zposition Zrotation Xrotation Yrotation 
				JOINT Neck
				{
					OFFSET 16.3773 0.0 0.0
					CHANNELS 6 Xposition Yposition Zposition Zrotation Xrotation Yrotation 
					JOINT Head
					{
						OFFSET 6.45672 0.0 0.0
						CHANNELS 6 Xposition Yposition Zposition Zrotation Xrotation Yrotation 
						End Site
						{
							OFFSET 0.0 0.0 0.0
						}
					}
				}
				JOINT Shoulder_L
				{
					OFFSET 12.9942 -0.242716 4.98039
					CHANNELS 6 Xposition Yposition Zposition Zrotation Xrotation Yrotation 
					JOINT UpperArm_L
					{
						OFFSET 5.34809 0.0 0.0
						CHANNELS 6 Xposition Yposition Zposition Zrotation Xrotation Yrotation 
						JOINT LowerArm_L
						{
							OFFSET 24.3286 1.87007e-05 0.0
							CHANNELS 6 Xposition Yposition Zposition Zrotation Xrotation Yrotation 
							JOINT Hand_L
							{
								OFFSET 22.2916 0.0 0.0
								CHANNELS 6 Xposition Yposition Zposition Zrotation Xrotation Yrotation 
								End Site
								{
									OFFSET 0.0 0.0 0.0
								}
							}
						}
					}
				}
				JOINT Shoulder_R
				{
					OFFSET 12.9945 -0.242716 -4.98039
					CHANNELS 6 Xposition Yposition Zposition Zrotation Xrotation Yrotation 
					JOINT UpperArm_R
					{
						OFFSET -5.34813 0.0 0.0
						CHANNELS 6 Xposition Yposition Zposition Zrotation Xrotation Yrotation 
						JOINT LowerArm_R
						{
							OFFSET -24.3289 0.000322201 0.0
							CHANNELS 6 Xposition Yposition Zposition Zrotation Xrotation Yrotation 
							JOINT Hand_R
							{
								OFFSET -22.2915 -0.000108084 0.0
								CHANNELS 6 Xposition Yposition Zposition Zrotation Xrotation Yrotation 
								End Site
								{
									OFFSET 0.0 0.0 0.0
								}
							}
						}
					}
				}
			}
		}
		JOINT UpperLeg_L
		{
			OFFSET -2.19248 -6.46944 0.0
			CHANNELS 6 Xposition Yposition Zposition Zrotation Xrotation Yrotation 
			JOINT LowerLeg_L
			{
				OFFSET 39.0811 0.0 -1.23785e-05
				CHANNELS 6 Xposition Yposition Zposition Zrotation Xrotation Yrotation 
				JOINT Foot_L
				{
					OFFSET 40.9854 0.0 -1.26872e-05
					CHANNELS 6 Xposition Yposition Zposition Zrotation Xrotation Yrotation 
					JOINT Toes_L
					{
						OFFSET 11.7543 0.0 0.0
						CHANNELS 6 Xposition Yposition Zposition Zrotation Xrotation Yrotation 
						End Site
						{
							OFFSET 0.0 0.0 0.0
						}
					}
				}
			}
		}
		JOINT UpperLeg_R
		{
			OFFSET -2.19251 6.46944 0.0
			CHANNELS 6 Xposition Yposition Zposition Zrotation Xrotation Yrotation 
			JOINT LowerLeg_R
			{
				OFFSET -39.0811 -0.00228153 -0.0401928
				CHANNELS 6 Xposition Yposition Zposition Zrotation Xrotation Yrotation 
				JOINT Foot_R
				{
					OFFSET -40.9854 0.0 0.0
					CHANNELS 6 Xposition Yposition Zposition Zrotation Xrotation Yrotation 
					JOINT Toes_R
					{
						OFFSET -11.7543 0.0 0.0
						CHANNELS 6 Xposition Yposition Zposition Zrotation Xrotation Yrotation 
						End Site
						{
							OFFSET 0.0 0.0 0.0
						}
					}
				}
			}
		}
	}
}
MOTION
Frames:	4
Frame Time:	0.0333333
0.000000 0.000000 0.000000 0.000000 0.000000 -0.000000 2.153300 93.049600 -0.530849 89.954400 4.551330 3.185070 15.735700 0.000005 -0.000001 68.253600 86.293200 -59.640100 8.984550 -0.406207 -0.000000 -0.567704 -3.369250 17.206900 16.377300 -0.000001 -0.000001 1.567010 3.662090 5.649950 6.456720 -0.000001 -0.000000 -17.216200 -1.669470 17.764900 12.994200 -0.242716 4.980390 -88.357500 -3.576400 -65.312100 5.348090 -0.000007 -0.000001 -52.536700 -57.816600 -91.288800 24.328600 0.000019 0.000005 0.164700 11.039300 -0.859812 22.291600 -0.000001 0.000005 42.435800 4.528390 16.128200 12.994500 -0.242716 -4.980390 87.816000 5.810450 -69.358800 -5.348130 -0.000001 -0.000004 -56.734900 7.048060 -9.353070 -24.328900 0.000322 -0.000009 1.318310 4.873200 -15.169000 -22.291500 -0.000108 -0.000004 7.000070 5.251690 1.388080 -2.192480 -6.469440 -0.000000 -176.200000 -10.522800 0.275076 39.081100 -0.000007 -0.000012 0.018467 -0.063420 16.235300 40.985400 -0.000006 -0.000013 2.399050 20.537600 -68.678400 11.754300 -0.000000 0.000003 -0.000842 0.180764 -9.244300 -2.192510 6.469440 -0.000001 172.838000 12.200100 -176.444000 -39.081100 -0.002282 -0.040193 0.014226 -0.048981 12.536900 -40.985400 0.000008 0.000006 -6.437260 5.988450 -67.407300 -11.754300 -0.000006 -0.000006 -0.011724 0.283768 -5.040930
0.000000 0.000000 0.000000 0.000000 0.000000 -0.000000 2.141450 93.054500 -0.515384 89.949600 4.588780 3.124770 15.735700 0.000005 -0.000001 68.259100 86.270500 -59.682400 8.984550 -0.406207 -0.000000 -0.525994 -3.379650 17.134400 16.377300 -0.000001 -0.000001 1.672620 3.624200 5.640310 6.456720 -0.000001 -0.000000 -17.154400 -1.630130 17.647300 12.994200 -0.242716 4.980390 -88.369700 -3.546500 -65.291900 5.348090 -0.000007 -0.000001 -52.652600 -57.762900 -91.266400 24.328600 0.000019 0.000005 0.163801 11.217700 -0.841694 22.291600 -0.000001 0.000005 42.470300 4.518180 16.298400 12.994500 -0.242716 -4.980390 87.838300 5.732420 -69.297900 -5.348130 -0.000001 -0.000004 -56.699400 6.890530 -9.166490 -24.328900 0.000322 -0.000009 1.338920 4.953850 -15.156400 -22.291500 -0.000108 -0.000004 6.873220 5.252270 1.372960 -2.192480 -6.469440 -0.000000 -176.200000 -10.459300 0.239918 39.081100 -0.000007 -0.000012 0.018271 -0.062941 16.187500 40.985400 -0.000006 -0.000013 2.380230 20.536200 -68.676100 11.754300 -0.000000 0.000003 -0.000696 0.178623 -9.331290 -2.192510 6.469440 -0.000001 172.849000 12.266500 -176.451000 -39.081100 -0.002282 -0.040193 0.013674 -0.046793 12.459900 -40.985400 0.000008 0.000006 -6.459830 6.027850 -67.362900 -11.754300 -0.000006 -0.000006 -0.011764 0.284047 -5.029520
0.000000 0.000000 0.000000 0.000000 0.000000 -0.000000 2.126890 93.057000 -0.499435 89.938500 4.573260 3.070940 15.735700 0.000005 -0.000001 68.555300 86.268700 -60.014400 8.984550 -0.406207 -0.000000 -0.512755 -3.341620 17.063200 16.377300 -0.000001 -0.000001 1.800170 3.624770 5.607420 6.456720 -0.000001 -0.000000 -17.069700 -1.630610 17.624800 12.994200 -0.242716 4.980390 -88.364300 -3.549790 -65.239700 5.348090 -0.000007 -0.000001 -52.650100 -57.678400 -91.145700 24.328600 0.000019 0.000005 0.174997 11.229900 -0.898259 22.291600 -0.000001 0.000005 42.426200 4.513600 16.374700 12.994500 -0.242716 -4.980390 87.857900 5.660910 -69.233700 -5.348130 -0.000001 -0.000004 -56.636100 6.919420 -8.854530 -24.328900 0.000322 -0.000009 1.330090 4.871510 -15.303100 -22.291500 -0.000108 -0.000004 6.918420 5.252670 1.362220 -2.192480 -6.469440 -0.000000 -176.193000 -10.446600 0.210670 39.081100 -0.000007 -0.000012 0.018452 -0.063662 16.164400 40.985400 -0.000006 -0.000013 2.359400 20.485500 -68.696200 11.754300 -0.000000 0.000003 -0.000787 0.179967 -9.276670 -2.192510 6.469440 -0.000001 172.893000 12.132200 -176.491000 -39.081100 -0.002282 -0.040193 0.013050 -0.044057 12.435000 -40.985400 0.000008 0.000006 -6.583740 5.916820 -67.345700 -11.754300 -0.000006 -0.000006 -0.011536 0.282448 -5.095000
0.000000 0.000000 0.000000 0.000000 0.000000 -0.000000 2.131170 93.054600 -0.476973 89.942000 4.561160 3.015400 15.735700 0.000005 -0.000001 68.643700 86.260300 -60.129600 8.984550 -0.406207 -0.000000 -0.494757 -3.333710 17.010000 16.377300 -0.000001 -0.000001 1.957830 3.655170 5.607440 6.456720 -0.000001 -0.000000 -17.061400 -1.542290 17.495700 12.994200 -0.242716 4.980390 -88.365800 -3.538920 -65.193300 5.348090 -0.000007 -0.000001 -52.545600 -57.690700 -90.949200 24.328600 0.000019 0.000005 0.167943 11.197700 -0.864478 22.291600 -0.000001 0.000005 42.579800 4.512970 16.385200 12.994500 -0.242716 -4.980390 87.863600 5.624250 -69.160800 -5.348130 -0.000001 -0.000004 -56.562600 6.892950 -8.545990 -24.328900 0.000322 -0.000009 1.340240 4.831590 -15.535300 -22.291500 -0.000108 -0.000004 6.845160 5.250590 1.417010 -2.192480 -6.469440 -0.000000 -176.214000 -10.368100 0.174589 39.081100 -0.000007 -0.000012 0.018782 -0.064864 16.149100 40.985400 -0.000006 -0.000013 2.346210 20.405100 -68.663500 11.754300 -0.000000 0.000003 -0.000539 0.176244 -9.427930 -2.192510 6.469440 -0.000001 172.897000 12.154400 -176.528000 -39.081100 -0.002282 -0.040193 0.013501 -0.046148 12.423700 -40.985400 0.000008 0.000006 -6.526370 5.966800 -67.352800 -11.754300 -0.000006 -0.000006 -0.011376 0.281317 -5.141290
